<svg xmlns="http://www.w3.org/2000/svg" viewBox="0 0 1024 1024">
  <title>Helm Help</title>
  <desc>Assembled from fa-screwdriver-wrench.svg and fa-dharmachakra.svg from fontawesome Copyright 2024 Fonticons, Inc.</desc>
  <rect fill="#006" x="0" y="0" width="1024" height="1024" />
  <path transform="translate(256,256)" fill="#ba6" stroke="#000" stroke-width="10" d="
	   M78.6 5C69.1-2.4 55.6-1.5 47 7L7 47c-8.5 8.5-9.4 22-2.1 31.6l80 104c4.5 5.9 11.6 9.4 19 9.4h54.1l109 109c-14.7 29-10 65.4 14.3 89.6l112 112c12.5 12.5 32.8 12.5 45.3 0l64-64c12.5-12.5 12.5-32.8 0-45.3l-112-112c-24.2-24.2-60.6-29-89.6-14.3l-109-109V104c0-7.5-3.5-14.5-9.4-19L78.6 5z
	   "/>
  <path transform="translate(256,256)" fill="#445" stroke="#000" stroke-width="10" d="
	   M19.9 396.1C7.2 408.8 0 426.1 0 444.1C0 481.6 30.4 512 67.9 512c18 0 35.3-7.2 48-19.9L233.7 374.3c-7.8-20.9-9-43.6-3.6-65.1l-61.7-61.7L19.9 396.1z
	   M512 144c0-10.5-1.1-20.7-3.2-30.5c-2.4-11.2-16.1-14.1-24.2-6l-63.9 63.9c-3 3-7.1 4.7-11.3 4.7H352c-8.8 0-16-7.2-16-16V102.6c0-4.2 1.7-8.3 4.7-11.3l63.9-63.9c8.1-8.1 5.2-21.8-6-24.2C388.7 1.1 378.5 0 368 0C288.5 0 224 64.5 224 144l0 .8 85.3 85.3c36-9.1 75.8 .5 104 28.7L429 274.5c49-23 83-72.8 83-130.5z
	   M56 432a24 24 0 1 1 48 0 24 24 0 1 1 -48 0z
	   "/>
  <path transform="translate(256,256)" fill="#860" stroke="#000000" d="
	   M337.8 205.7l48.6-42.5c13.8 19.3 23.4 41.9 27.4 66.2l-64.4 4.3c-2.4-10.1-6.4-19.5-11.6-28z
	   m140.1 19.5c-5.3-38.8-20.6-74.5-43.2-104.3l.8-.7C449 108.4 449.7 87.6 437 75s-33.4-12-45.2 1.5l-.7 .8c-29.8-22.6-65.5-37.9-104.3-43.2l.1-1.1c1.2-17.9-13-33-30.9-33s-32.1 15.2-30.9 33l.1 1.1c-38.8 5.3-74.5 20.6-104.3 43.2l-.7-.8C108.4 63 87.6 62.3 75 75s-12 33.4 1.5 45.2l.8 .7c-22.6 29.8-37.9 65.5-43.2 104.3l-1.1-.1c-17.9-1.2-33 13-33 30.9s15.2 32.1 33 30.9l1.1-.1c5.3 38.8 20.6 74.5 43.2 104.3l-.8 .7C63 403.6 62.3 424.4 75 437s33.4 12 45.2-1.5l.7-.8c29.8 22.6 65.5 37.9 104.3 43.2l-.1 1.1c-1.2 17.9 13 33 30.9 33s32.1-15.2 30.9-33l-.1-1.1c38.8-5.3 74.5-20.6 104.3-43.2l.7 .8c11.8 13.5 32.5 14.2 45.2 1.5s12-33.4-1.5-45.2l-.8-.7c22.6-29.8 37.9-65.5 43.2-104.3l1.1 .1c17.9 1.2 33-13 33-30.9s-15.2-32.1-33-30.9l-1.1 .1z
	   M163.2 125.6c19.3-13.8 41.9-23.4 66.2-27.5l4.3 64.4c-10 2.4-19.5 6.4-28 11.6l-42.5-48.6z
	   m-65 103.8c4.1-24.4 13.7-46.9 27.5-66.2l48.6 42.5c-5.3 8.5-9.2 18-11.6 28l-64.4-4.3z
	   m27.5 119.4c-13.8-19.3-23.4-41.9-27.5-66.2l64.4-4.3c2.4 10 6.4 19.5 11.6 28l-48.6 42.5z
	   m103.8 65c-24.4-4.1-46.9-13.7-66.2-27.4l42.5-48.6c8.5 5.3 18 9.2 28 11.6l-4.3 64.4z
	   m119.4-27.4c-19.3 13.8-41.9 23.4-66.2 27.4l-4.3-64.4c10-2.4 19.5-6.4 28-11.6l42.5 48.6z
	   m65-103.8c-4.1 24.4-13.7 46.9-27.4 66.2l-48.6-42.5c5.3-8.5 9.2-18 11.6-28l64.4 4.3z
	   m-65-156.9l-42.5 48.6c-8.5-5.3-18-9.2-28-11.6l4.3-64.4c24.4 4.1 46.9 13.7 66.2 27.5z
	   M256 224a32 32 0 1 1 0 64 32 32 0 1 1 0-64z
	   "/>
</svg>
